<svg enable-background="new 0 0 186.7 65" viewBox="0 0 186.7 65" xmlns="http://www.w3.org/2000/svg"><g fill="#fff"><path d="m183.2 49.3c1.8 0 3.4 1.6 3.4 3.4s-1.6 3.4-3.4 3.4-3.4-1.6-3.4-3.4 1.5-3.4 3.4-3.4zm0 6.1c1.5 0 2.5-1.2 2.5-2.7s-1.2-2.7-2.6-2.7-2.5 1.2-2.5 2.7c.1 1.6 1.1 2.7 2.6 2.7zm-1.2-4.3h1.5c.7 0 1.2.4 1.2 1.1 0 .6-.4.9-.6.9s0 0 .1.2l.7 1.3h-.9l-.6-1.3h-.5v1.3h-.8zm1.3 1.5c.3 0 .5-.2.5-.5s-.2-.5-.5-.5h-.5v1.1z"/><path d="m96 37.6v-17.6h7.9v-8.1h-7.9v-11.6h-8.2v5.7c0 3.4-1.7 5.9-5.8 5.9h-2v8.1h7v19.1c0 7.1 4.4 11.4 11.4 11.4 3.3 0 5-.6 5.5-.9v-7.5c-.4.1-1.8.3-3.1.3-3.4 0-4.8-1.4-4.8-4.8z"/><path d="m3.2 64.7c3.8 0 5.6-2.2 5.8-5.3v-13.8c1.9 2.9 6.1 5.2 11.6 5.2 11 0 17.9-8.5 17.9-20 0-11.3-6.3-19.8-17.6-19.8-5.8 0-10.2 2.7-12.1 6v-5.1h-8.7v52.8zm16-21.9c-5.9 0-10.2-4.7-10.2-12 0-7.1 4.3-11.8 10.2-11.8 6.1 0 10.2 4.7 10.2 11.8 0 7.3-4.2 12-10.2 12z"/><path d="m165.6 10.7c-11.4 0-19.7 8.5-19.7 20.1 0 11.8 8.4 20.2 19.7 20.2s19.7-8.5 19.7-20.2c.1-11.5-8.2-20.1-19.7-20.1zm0 32.3c-5.5 0-10.6-4.2-10.6-12.1s5.1-11.9 10.6-11.9c5.6 0 10.6 4.1 10.6 11.9.1 7.9-5 12.1-10.6 12.1z"/><path d="m78.6 30.5c0-12-6.9-19.7-18.6-19.7-9.6 0-18.6 8-18.6 20 0 12.9 9.1 20.4 19.4 20.4 9.1 0 15.2-5.3 17.2-12l.3-1.1h-8.5c-1.5 3.1-4.2 5.3-9 5.3-5.6 0-10.2-4.2-10.4-9.9h27.8c.3-.2.4-1.5.4-3zm-27.8-3.7c.3-4.1 3.6-8.5 9.3-8.5 6.2 0 9.2 4 9.3 8.5z"/><path d="m143.3 35.8h-8.4c-.9 2.9-3.6 7-9.5 7-5.7 0-10.6-4.3-10.6-11.9s5-11.8 10.5-11.8c5.8 0 8.4 3.8 9.2 7.1h8.5c.4 0-.3-2.5-.4-3v-.1c-1.6-6.1-7.2-12.4-17.4-12.4-11 0-19.4 8.5-19.4 20.1s8.5 20.2 19.7 20.2c10 0 15.7-6.5 17.5-12.4-.1.1.5-2.8.3-2.8z"/></g></svg>